<mxfile host="app.diagrams.net" modified="2023-11-20T18:13:38.121Z" agent="Mozilla/5.0 (Windows NT 10.0; Win64; x64) AppleWebKit/537.36 (KHTML, like Gecko) Chrome/119.0.0.0 Safari/537.36" etag="gHA3iX7pgYJR89UIFSJn" version="22.1.3" type="device">
  <diagram name="Page-1" id="Y15tAVEhv9TbgKMJA4wN">
    <mxGraphModel dx="819" dy="447" grid="1" gridSize="10" guides="1" tooltips="1" connect="1" arrows="1" fold="1" page="1" pageScale="1" pageWidth="1654" pageHeight="1169" math="0" shadow="0">
      <root>
        <mxCell id="0" />
        <mxCell id="1" parent="0" />
        <mxCell id="C90kMnKC-BsZRtyWfMNL-3" value="" style="edgeStyle=orthogonalEdgeStyle;rounded=0;orthogonalLoop=1;jettySize=auto;html=1;" edge="1" parent="1" source="C90kMnKC-BsZRtyWfMNL-1" target="C90kMnKC-BsZRtyWfMNL-2">
          <mxGeometry relative="1" as="geometry" />
        </mxCell>
        <mxCell id="C90kMnKC-BsZRtyWfMNL-1" value="WinMain" style="rounded=0;whiteSpace=wrap;html=1;fontSize=20;" vertex="1" parent="1">
          <mxGeometry x="710" y="40" width="140" height="60" as="geometry" />
        </mxCell>
        <mxCell id="C90kMnKC-BsZRtyWfMNL-11" value="" style="edgeStyle=orthogonalEdgeStyle;rounded=0;orthogonalLoop=1;jettySize=auto;html=1;" edge="1" parent="1" source="C90kMnKC-BsZRtyWfMNL-2" target="C90kMnKC-BsZRtyWfMNL-6">
          <mxGeometry relative="1" as="geometry" />
        </mxCell>
        <mxCell id="C90kMnKC-BsZRtyWfMNL-65" value="" style="edgeStyle=orthogonalEdgeStyle;rounded=0;orthogonalLoop=1;jettySize=auto;html=1;" edge="1" parent="1" source="C90kMnKC-BsZRtyWfMNL-2" target="C90kMnKC-BsZRtyWfMNL-64">
          <mxGeometry relative="1" as="geometry" />
        </mxCell>
        <mxCell id="C90kMnKC-BsZRtyWfMNL-2" value="Application" style="rounded=0;whiteSpace=wrap;html=1;fontSize=20;" vertex="1" parent="1">
          <mxGeometry x="710" y="120" width="140" height="60" as="geometry" />
        </mxCell>
        <mxCell id="C90kMnKC-BsZRtyWfMNL-4" value="GlobalEntities" style="rounded=0;whiteSpace=wrap;html=1;fontSize=20;" vertex="1" parent="1">
          <mxGeometry x="990" y="140" width="210" height="60" as="geometry" />
        </mxCell>
        <mxCell id="C90kMnKC-BsZRtyWfMNL-12" value="" style="edgeStyle=orthogonalEdgeStyle;rounded=0;orthogonalLoop=1;jettySize=auto;html=1;" edge="1" parent="1" source="C90kMnKC-BsZRtyWfMNL-6" target="C90kMnKC-BsZRtyWfMNL-8">
          <mxGeometry relative="1" as="geometry" />
        </mxCell>
        <mxCell id="C90kMnKC-BsZRtyWfMNL-13" value="" style="edgeStyle=orthogonalEdgeStyle;rounded=0;orthogonalLoop=1;jettySize=auto;html=1;" edge="1" parent="1" source="C90kMnKC-BsZRtyWfMNL-6" target="C90kMnKC-BsZRtyWfMNL-7">
          <mxGeometry relative="1" as="geometry" />
        </mxCell>
        <mxCell id="C90kMnKC-BsZRtyWfMNL-14" value="" style="edgeStyle=orthogonalEdgeStyle;rounded=0;orthogonalLoop=1;jettySize=auto;html=1;" edge="1" parent="1" source="C90kMnKC-BsZRtyWfMNL-6" target="C90kMnKC-BsZRtyWfMNL-9">
          <mxGeometry relative="1" as="geometry" />
        </mxCell>
        <mxCell id="C90kMnKC-BsZRtyWfMNL-6" value="Screens" style="rounded=0;whiteSpace=wrap;html=1;fontSize=20;" vertex="1" parent="1">
          <mxGeometry x="710" y="250" width="140" height="60" as="geometry" />
        </mxCell>
        <mxCell id="C90kMnKC-BsZRtyWfMNL-25" value="" style="edgeStyle=orthogonalEdgeStyle;rounded=0;orthogonalLoop=1;jettySize=auto;html=1;" edge="1" parent="1" source="C90kMnKC-BsZRtyWfMNL-7" target="C90kMnKC-BsZRtyWfMNL-24">
          <mxGeometry relative="1" as="geometry" />
        </mxCell>
        <mxCell id="C90kMnKC-BsZRtyWfMNL-7" value="ScreenMenu" style="rounded=0;whiteSpace=wrap;html=1;fontSize=20;" vertex="1" parent="1">
          <mxGeometry x="110" y="370" width="160" height="60" as="geometry" />
        </mxCell>
        <mxCell id="C90kMnKC-BsZRtyWfMNL-18" value="" style="edgeStyle=orthogonalEdgeStyle;rounded=0;orthogonalLoop=1;jettySize=auto;html=1;" edge="1" parent="1" source="C90kMnKC-BsZRtyWfMNL-8" target="C90kMnKC-BsZRtyWfMNL-15">
          <mxGeometry relative="1" as="geometry" />
        </mxCell>
        <mxCell id="C90kMnKC-BsZRtyWfMNL-19" value="" style="edgeStyle=orthogonalEdgeStyle;rounded=0;orthogonalLoop=1;jettySize=auto;html=1;" edge="1" parent="1" source="C90kMnKC-BsZRtyWfMNL-8" target="C90kMnKC-BsZRtyWfMNL-17">
          <mxGeometry relative="1" as="geometry" />
        </mxCell>
        <mxCell id="C90kMnKC-BsZRtyWfMNL-21" value="" style="edgeStyle=orthogonalEdgeStyle;rounded=0;orthogonalLoop=1;jettySize=auto;html=1;" edge="1" parent="1" source="C90kMnKC-BsZRtyWfMNL-8" target="C90kMnKC-BsZRtyWfMNL-20">
          <mxGeometry relative="1" as="geometry" />
        </mxCell>
        <mxCell id="C90kMnKC-BsZRtyWfMNL-23" value="" style="edgeStyle=orthogonalEdgeStyle;rounded=0;orthogonalLoop=1;jettySize=auto;html=1;" edge="1" parent="1" source="C90kMnKC-BsZRtyWfMNL-8" target="C90kMnKC-BsZRtyWfMNL-22">
          <mxGeometry relative="1" as="geometry" />
        </mxCell>
        <mxCell id="C90kMnKC-BsZRtyWfMNL-8" value="ScreenGame" style="rounded=0;whiteSpace=wrap;html=1;fontSize=20;" vertex="1" parent="1">
          <mxGeometry x="700" y="380" width="160" height="60" as="geometry" />
        </mxCell>
        <mxCell id="C90kMnKC-BsZRtyWfMNL-27" value="" style="edgeStyle=orthogonalEdgeStyle;rounded=0;orthogonalLoop=1;jettySize=auto;html=1;" edge="1" parent="1" source="C90kMnKC-BsZRtyWfMNL-9" target="C90kMnKC-BsZRtyWfMNL-26">
          <mxGeometry relative="1" as="geometry" />
        </mxCell>
        <mxCell id="C90kMnKC-BsZRtyWfMNL-9" value="ScreenLeaderboard" style="rounded=0;whiteSpace=wrap;html=1;fontSize=20;" vertex="1" parent="1">
          <mxGeometry x="1300" y="380" width="210" height="60" as="geometry" />
        </mxCell>
        <mxCell id="C90kMnKC-BsZRtyWfMNL-29" value="" style="edgeStyle=orthogonalEdgeStyle;rounded=0;orthogonalLoop=1;jettySize=auto;html=1;" edge="1" parent="1" source="C90kMnKC-BsZRtyWfMNL-15" target="C90kMnKC-BsZRtyWfMNL-28">
          <mxGeometry relative="1" as="geometry" />
        </mxCell>
        <mxCell id="C90kMnKC-BsZRtyWfMNL-15" value="Minefield" style="rounded=0;whiteSpace=wrap;html=1;fontSize=20;fontStyle=1" vertex="1" parent="1">
          <mxGeometry x="660" y="605" width="120" height="40" as="geometry" />
        </mxCell>
        <mxCell id="C90kMnKC-BsZRtyWfMNL-17" value="Clock" style="rounded=0;whiteSpace=wrap;html=1;fontSize=20;" vertex="1" parent="1">
          <mxGeometry x="520" y="605" width="120" height="40" as="geometry" />
        </mxCell>
        <mxCell id="C90kMnKC-BsZRtyWfMNL-20" value="Scoring" style="rounded=0;whiteSpace=wrap;html=1;fontSize=20;" vertex="1" parent="1">
          <mxGeometry x="930" y="605" width="120" height="40" as="geometry" />
        </mxCell>
        <mxCell id="C90kMnKC-BsZRtyWfMNL-22" value="Controls" style="rounded=0;whiteSpace=wrap;html=1;fontSize=20;" vertex="1" parent="1">
          <mxGeometry x="794" y="605" width="120" height="40" as="geometry" />
        </mxCell>
        <mxCell id="C90kMnKC-BsZRtyWfMNL-24" value="Controls" style="rounded=0;whiteSpace=wrap;html=1;fontSize=20;" vertex="1" parent="1">
          <mxGeometry x="130" y="600" width="120" height="40" as="geometry" />
        </mxCell>
        <mxCell id="C90kMnKC-BsZRtyWfMNL-26" value="Leaderboard" style="rounded=0;whiteSpace=wrap;html=1;fontSize=20;" vertex="1" parent="1">
          <mxGeometry x="1322.5" y="605" width="165" height="45" as="geometry" />
        </mxCell>
        <mxCell id="C90kMnKC-BsZRtyWfMNL-46" value="" style="group" vertex="1" connectable="0" parent="1">
          <mxGeometry x="1050" y="720" width="260" height="180" as="geometry" />
        </mxCell>
        <mxCell id="C90kMnKC-BsZRtyWfMNL-45" value="" style="group" vertex="1" connectable="0" parent="C90kMnKC-BsZRtyWfMNL-46">
          <mxGeometry width="260" height="180" as="geometry" />
        </mxCell>
        <mxCell id="C90kMnKC-BsZRtyWfMNL-55" value="" style="group;fillColor=#f8cecc;strokeColor=#b85450;" vertex="1" connectable="0" parent="C90kMnKC-BsZRtyWfMNL-45">
          <mxGeometry x="-100" width="260" height="180" as="geometry" />
        </mxCell>
        <mxCell id="C90kMnKC-BsZRtyWfMNL-42" value="&lt;b&gt;CellEntity&lt;/b&gt; entity" style="whiteSpace=wrap;html=1;fontSize=20;rounded=0;fontStyle=0;fillColor=#f8cecc;strokeColor=#b85450;" vertex="1" parent="C90kMnKC-BsZRtyWfMNL-55">
          <mxGeometry y="120" width="260" height="60" as="geometry" />
        </mxCell>
        <mxCell id="C90kMnKC-BsZRtyWfMNL-44" value="&lt;b&gt;bool &lt;/b&gt;is_opened" style="whiteSpace=wrap;html=1;fontSize=20;rounded=0;fontStyle=0;fillColor=#f8cecc;strokeColor=#b85450;" vertex="1" parent="C90kMnKC-BsZRtyWfMNL-55">
          <mxGeometry y="60" width="260" height="60" as="geometry" />
        </mxCell>
        <mxCell id="C90kMnKC-BsZRtyWfMNL-43" value="&lt;b&gt;int &lt;/b&gt;number_under" style="whiteSpace=wrap;html=1;fontSize=20;rounded=0;fontStyle=0;fillColor=#f8cecc;strokeColor=#b85450;" vertex="1" parent="C90kMnKC-BsZRtyWfMNL-55">
          <mxGeometry width="260" height="60" as="geometry" />
        </mxCell>
        <mxCell id="C90kMnKC-BsZRtyWfMNL-52" value="" style="edgeStyle=orthogonalEdgeStyle;rounded=0;orthogonalLoop=1;jettySize=auto;html=1;" edge="1" parent="1" source="C90kMnKC-BsZRtyWfMNL-48" target="C90kMnKC-BsZRtyWfMNL-51">
          <mxGeometry relative="1" as="geometry" />
        </mxCell>
        <mxCell id="C90kMnKC-BsZRtyWfMNL-51" value="inherits from&lt;br&gt;&lt;b&gt;sf::Drawables&lt;/b&gt;" style="shape=hexagon;perimeter=hexagonPerimeter2;whiteSpace=wrap;html=1;fixedSize=1;fontSize=20;rounded=0;fontStyle=0;" vertex="1" parent="1">
          <mxGeometry x="895" y="1025" width="190" height="80" as="geometry" />
        </mxCell>
        <mxCell id="C90kMnKC-BsZRtyWfMNL-57" value="" style="edgeStyle=orthogonalEdgeStyle;rounded=0;orthogonalLoop=1;jettySize=auto;html=1;" edge="1" parent="1" source="C90kMnKC-BsZRtyWfMNL-28" target="C90kMnKC-BsZRtyWfMNL-44">
          <mxGeometry relative="1" as="geometry" />
        </mxCell>
        <mxCell id="C90kMnKC-BsZRtyWfMNL-58" value="" style="edgeStyle=orthogonalEdgeStyle;rounded=0;orthogonalLoop=1;jettySize=auto;html=1;" edge="1" parent="1" source="C90kMnKC-BsZRtyWfMNL-28" target="C90kMnKC-BsZRtyWfMNL-34">
          <mxGeometry relative="1" as="geometry" />
        </mxCell>
        <mxCell id="C90kMnKC-BsZRtyWfMNL-28" value="cell_matrix =&amp;nbsp;&lt;i style=&quot;border-color: var(--border-color);&quot;&gt;vector2&amp;lt;&lt;/i&gt;&lt;span style=&quot;font-weight: 700;&quot;&gt;Cell&lt;/span&gt;&lt;span style=&quot;border-color: var(--border-color);&quot;&gt;&lt;i style=&quot;border-color: var(--border-color);&quot;&gt;&amp;gt;&lt;/i&gt;&lt;/span&gt;" style="whiteSpace=wrap;html=1;fontSize=20;rounded=0;fontStyle=0;" vertex="1" parent="1">
          <mxGeometry x="645" y="780" width="150" height="60" as="geometry" />
        </mxCell>
        <mxCell id="C90kMnKC-BsZRtyWfMNL-53" value="" style="group;fillColor=#d5e8d4;strokeColor=#82b366;" vertex="1" connectable="0" parent="1">
          <mxGeometry x="620" y="900" width="200" height="190" as="geometry" />
        </mxCell>
        <mxCell id="C90kMnKC-BsZRtyWfMNL-38" value="" style="group;fillColor=#d5e8d4;strokeColor=#82b366;" vertex="1" connectable="0" parent="C90kMnKC-BsZRtyWfMNL-53">
          <mxGeometry width="200" height="140" as="geometry" />
        </mxCell>
        <mxCell id="C90kMnKC-BsZRtyWfMNL-34" value="&lt;b&gt;int&lt;/b&gt;&amp;nbsp;number_under()&lt;br&gt;[-1,0..8]" style="whiteSpace=wrap;html=1;fontSize=20;rounded=0;fontStyle=2;fillColor=#d5e8d4;strokeColor=#82b366;" vertex="1" parent="C90kMnKC-BsZRtyWfMNL-38">
          <mxGeometry width="200" height="70" as="geometry" />
        </mxCell>
        <mxCell id="C90kMnKC-BsZRtyWfMNL-36" value="&lt;b&gt;bool &lt;/b&gt;is_opened()&lt;br&gt;[true/false]" style="whiteSpace=wrap;html=1;fontSize=20;rounded=0;fontStyle=2;fillColor=#d5e8d4;strokeColor=#82b366;" vertex="1" parent="C90kMnKC-BsZRtyWfMNL-38">
          <mxGeometry y="70" width="200" height="70" as="geometry" />
        </mxCell>
        <mxCell id="C90kMnKC-BsZRtyWfMNL-48" value="&lt;b&gt;void &lt;/b&gt;draw()" style="whiteSpace=wrap;html=1;fontSize=20;rounded=0;fontStyle=0;fillColor=#d5e8d4;strokeColor=#82b366;" vertex="1" parent="C90kMnKC-BsZRtyWfMNL-53">
          <mxGeometry y="140" width="200" height="50" as="geometry" />
        </mxCell>
        <mxCell id="C90kMnKC-BsZRtyWfMNL-61" value="&lt;b&gt;MinefieldGenerator&lt;/b&gt;" style="whiteSpace=wrap;html=1;fontSize=20;rounded=0;fontStyle=0;" vertex="1" parent="1">
          <mxGeometry x="950" y="900" width="260" height="60" as="geometry" />
        </mxCell>
        <mxCell id="C90kMnKC-BsZRtyWfMNL-64" value="Services" style="rounded=0;whiteSpace=wrap;html=1;fontSize=20;" vertex="1" parent="1">
          <mxGeometry x="990" y="80" width="210" height="60" as="geometry" />
        </mxCell>
        <mxCell id="C90kMnKC-BsZRtyWfMNL-67" value="" style="endArrow=classic;startArrow=classic;html=1;rounded=0;exitX=0.25;exitY=1;exitDx=0;exitDy=0;entryX=0.324;entryY=-0.012;entryDx=0;entryDy=0;entryPerimeter=0;" edge="1" parent="1" source="C90kMnKC-BsZRtyWfMNL-15" target="C90kMnKC-BsZRtyWfMNL-28">
          <mxGeometry width="50" height="50" relative="1" as="geometry">
            <mxPoint x="880" y="810" as="sourcePoint" />
            <mxPoint x="930" y="760" as="targetPoint" />
          </mxGeometry>
        </mxCell>
      </root>
    </mxGraphModel>
  </diagram>
</mxfile>
